<svg width="34" height="29" viewBox="0 0 34 29" fill="none" xmlns="http://www.w3.org/2000/svg">
<path id="Vector" d="M9.185 10.5L15.755 0.660029C16.04 0.240029 16.52 0.0300293 17 0.0300293C17.48 0.0300293 17.96 0.240029 18.245 0.675029L24.815 10.5H32C32.825 10.5 33.5 11.175 33.5 12C33.5 12.135 33.485 12.27 33.44 12.405L29.63 26.31C29.285 27.57 28.13 28.5 26.75 28.5H7.25C5.87 28.5 4.715 27.57 4.355 26.31L0.545002 12.405L0.5 12C0.5 11.175 1.175 10.5 2 10.5H9.185ZM21.5 10.5L17 3.90003L12.5 10.5H21.5ZM17 22.5C18.65 22.5 20 21.15 20 19.5C20 17.85 18.65 16.5 17 16.5C15.35 16.5 14 17.85 14 19.5C14 21.15 15.35 22.5 17 22.5Z" fill="#AF272F"/>
</svg>
