<svg width="23" height="23" viewBox="0 0 23 23" fill="white" xmlns="http://www.w3.org/2000/svg">
<path id="Vector" d="M16.375 13.995H15.3875L15.0375 13.6575C16.2625 12.2325 17 10.3825 17 8.37C17 3.8825 13.3625 0.244995 8.875 0.244995C4.3875 0.244995 0.75 3.8825 0.75 8.37C0.75 12.8575 4.3875 16.495 8.875 16.495C10.8875 16.495 12.7375 15.7575 14.1625 14.5325L14.5 14.8825V15.87L20.75 22.1075L22.6125 20.245L16.375 13.995ZM8.875 13.995C5.7625 13.995 3.25 11.4825 3.25 8.37C3.25 5.25749 5.7625 2.745 8.875 2.745C11.9875 2.745 14.5 5.25749 14.5 8.37C14.5 11.4825 11.9875 13.995 8.875 13.995Z" fill="white"/>
</svg>
